<svg width="110" height="123" viewBox="0 0 110 123" fill="none" xmlns="http://www.w3.org/2000/svg">
<path d="M51.83 29.77V21.89C49.9402 21.3882 48.2162 20.3971 46.8317 19.0165C45.4472 17.6359 44.4512 15.9146 43.9441 14.0263C43.437 12.1379 43.4368 10.1493 43.9435 8.26083C44.4501 6.37238 45.4458 4.65091 46.83 3.27C47.8603 2.23624 49.0845 1.41602 50.4324 0.856357C51.7803 0.296696 53.2255 0.00860596 54.685 0.00860596C56.1445 0.00860596 57.5896 0.296696 58.9376 0.856357C60.2855 1.41602 61.5097 2.23624 62.54 3.27C63.9488 4.67463 64.9554 6.43119 65.4549 8.35684C65.9545 10.2825 65.9288 12.3068 65.3805 14.2192C64.8322 16.1316 63.7814 17.862 62.3374 19.2304C60.8934 20.5988 59.109 21.5552 57.17 22V29.47L57 29.39C56.698 29.308 56.3906 29.2478 56.08 29.21C55.667 29.1863 55.253 29.1863 54.84 29.21H54.7C54.3654 29.2088 54.0312 29.2322 53.7 29.28C53.47 29.28 53.19 29.38 52.88 29.46C52.5391 29.5371 52.2047 29.6408 51.88 29.77H51.8H51.83ZM33.83 47.28L54.1 35.93L54.35 35.83C54.5599 35.7619 54.7794 35.7281 55 35.73C55.189 35.728 55.3773 35.7516 55.56 35.8C55.7198 35.8329 55.8701 35.9012 56 36L76.06 47.61C76.5411 47.7944 76.9366 48.1507 77.17 48.61C77.3792 49.0107 77.4825 49.4582 77.47 49.91V73.32C77.4456 73.7042 77.3235 74.0758 77.1152 74.3996C76.907 74.7233 76.6195 74.9885 76.28 75.17L56.13 86.88C55.9847 86.9588 55.8302 87.0192 55.67 87.06C55.2687 87.1798 54.8412 87.1798 54.44 87.06C54.2425 87.0035 54.0539 86.9193 53.88 86.81L33.27 74.81C32.9397 74.6296 32.6597 74.3695 32.4553 74.0535C32.251 73.7374 32.1289 73.3753 32.1 73V49.46C32.1021 48.9597 32.2701 48.4743 32.5778 48.0798C32.8854 47.6852 33.3153 47.404 33.8 47.28H33.83ZM52.83 81.09V62.77L36.6 53.12V71.56L52.81 81.09H52.83ZM73 53.4L57.31 62.78V81.11L73 71.86V53.4ZM55 40.47L39.69 49.61L55.07 58.87L69.99 49.87L55 40.47ZM57.32 101C59.2915 101.489 61.0926 102.505 62.53 103.94C63.5637 104.97 64.384 106.194 64.9436 107.542C65.5033 108.89 65.7914 110.335 65.7914 111.795C65.7914 113.254 65.5033 114.7 64.9436 116.048C64.384 117.396 63.5637 118.62 62.53 119.65C61.4997 120.684 60.2755 121.504 58.9276 122.064C57.5796 122.623 56.1345 122.911 54.675 122.911C53.2155 122.911 51.7703 122.623 50.4224 122.064C49.0745 121.504 47.8503 120.684 46.82 119.65C45.7862 118.62 44.966 117.396 44.4063 116.048C43.8467 114.7 43.5586 113.254 43.5586 111.795C43.5586 110.335 43.8467 108.89 44.4063 107.542C44.966 106.194 45.7862 104.97 46.82 103.94C48.2463 102.506 50.0375 101.489 52 101V93.2C52.2158 93.2883 52.4361 93.365 52.66 93.43L53.04 93.53C53.2952 93.6044 53.5561 93.6579 53.82 93.69C54.2367 93.758 54.6578 93.7948 55.08 93.8C55.5022 93.7952 55.9234 93.7584 56.34 93.69C56.6786 93.6433 57.013 93.5698 57.34 93.47V101H57.32ZM58.76 107.7C57.6707 106.624 56.2012 106.021 54.67 106.021C53.1388 106.021 51.6693 106.624 50.58 107.7C49.5033 108.791 48.8997 110.262 48.8997 111.795C48.8997 113.328 49.5033 114.799 50.58 115.89C51.6693 116.966 53.1388 117.569 54.67 117.569C56.2012 117.569 57.6707 116.966 58.76 115.89C59.8415 114.802 60.4485 113.329 60.4485 111.795C60.4485 110.261 59.8415 108.788 58.76 107.7ZM58.76 7C57.6707 5.92397 56.2012 5.32057 54.67 5.32057C53.1388 5.32057 51.6693 5.92397 50.58 7C49.5033 8.09103 48.8997 9.56218 48.8997 11.095C48.8997 12.6278 49.5033 14.099 50.58 15.19C51.6707 16.2714 53.1441 16.8787 54.68 16.88C55.8239 16.8784 56.9418 16.5379 57.8924 15.9016C58.843 15.2652 59.5839 14.3616 60.0214 13.3046C60.459 12.2477 60.5736 11.0848 60.3509 9.96271C60.1282 8.84065 59.5781 7.80971 58.77 7H58.76ZM98.44 75.44C101.389 75.4416 104.216 76.6142 106.3 78.7C107.334 79.7303 108.154 80.9545 108.714 82.3024C109.273 83.6504 109.561 85.0955 109.561 86.555C109.561 88.0145 109.273 89.4596 108.714 90.8076C108.154 92.1555 107.334 93.3797 106.3 94.41C104.548 96.1613 102.262 97.2777 99.8038 97.582C97.3455 97.8862 94.856 97.3611 92.7302 96.0897C90.6044 94.8183 88.9639 92.8736 88.0689 90.5639C87.174 88.2542 87.0758 85.7118 87.79 83.34L81.28 79.58C81.8443 79.05 82.3323 78.4442 82.73 77.78C82.9189 77.4566 83.0891 77.1228 83.24 76.78C83.3975 76.4581 83.528 76.1236 83.63 75.78C83.7243 75.4814 83.8011 75.1775 83.86 74.87L90.51 78.71L90.57 78.64C92.6572 76.5527 95.4881 75.38 98.44 75.38V75.44ZM102.53 82.44C101.719 81.6333 100.687 81.0849 99.565 80.864C98.4427 80.6431 97.2801 80.7596 96.2239 81.1987C95.1677 81.6378 94.2652 82.3799 93.6304 83.3314C92.9955 84.2829 92.6567 85.4012 92.6567 86.545C92.6567 87.6888 92.9955 88.8071 93.6304 89.7586C94.2652 90.7101 95.1677 91.4522 96.2239 91.8913C97.2801 92.3305 98.4427 92.4469 99.565 92.226C100.687 92.0051 101.719 91.4567 102.53 90.65C103.611 89.5615 104.218 88.0894 104.218 86.555C104.218 85.0206 103.611 83.5485 102.53 82.46V82.44ZM11.13 75.44C14.0204 75.439 16.7972 76.5655 18.87 78.58L25.71 74.58L25.77 74.82L25.93 75.43C26.0519 75.8331 26.2092 76.2246 26.4 76.6C26.5092 76.8717 26.6431 77.1328 26.8 77.38C27.2007 78.0363 27.6848 78.638 28.24 79.17L28.3 79.23L21.7 83.04C22.5042 85.4205 22.4784 88.0033 21.6269 90.3673C20.7754 92.7314 19.1484 94.7373 17.0109 96.0583C14.8734 97.3793 12.3516 97.9374 9.85633 97.6417C7.36107 97.346 5.03951 96.214 3.26999 94.43C1.71347 92.8734 0.653471 90.8903 0.224033 88.7313C-0.205404 86.5723 0.0150071 84.3345 0.857394 82.3008C1.69978 80.267 3.12631 78.5288 4.95659 77.3058C6.78688 76.0828 8.93871 75.43 11.14 75.43L11.13 75.44ZM15.22 82.44C14.1315 81.3585 12.6594 80.7515 11.125 80.7515C9.59058 80.7515 8.11848 81.3585 7.02999 82.44C5.95093 83.5298 5.34561 85.0014 5.34561 86.535C5.34561 88.0686 5.95093 89.5402 7.02999 90.63H6.99999C8.09102 91.7067 9.56217 92.3103 11.095 92.3103C12.6278 92.3103 14.099 91.7067 15.19 90.63C16.2721 89.5398 16.8793 88.066 16.8793 86.53C16.8793 84.994 16.2721 83.5202 15.19 82.43L15.22 82.44ZM98.44 25.13C100.643 25.1252 102.799 25.7752 104.632 26.9974C106.465 28.2196 107.894 29.9589 108.738 31.9946C109.581 34.0303 109.8 36.2706 109.368 38.4312C108.936 40.5918 107.871 42.5753 106.31 44.13C105.277 45.1632 104.051 45.9828 102.702 46.542C101.352 47.1011 99.9058 47.3889 98.445 47.3889C96.9842 47.3889 95.5378 47.1011 94.1883 46.542C92.8388 45.9828 91.6126 45.1632 90.58 44.13L90.43 44L83.82 47.8C83.6362 46.955 83.3261 46.1425 82.9 45.39C82.4482 44.5634 81.8676 43.814 81.18 43.17L87.76 39.37C87.1916 37.4536 87.1527 35.4191 87.6474 33.4823C88.1422 31.5456 89.1521 29.779 90.57 28.37C91.6006 27.3355 92.8257 26.5149 94.1746 25.9554C95.5235 25.3959 96.9697 25.1086 98.43 25.11L98.44 25.13ZM102.53 32.13C101.442 31.0516 99.972 30.4465 98.44 30.4465C96.908 30.4465 95.438 31.0516 94.35 32.13C93.2626 33.2161 92.6512 34.6896 92.6502 36.2265C92.6493 37.7633 93.2589 39.2376 94.345 40.325C95.431 41.4124 96.9046 42.0238 98.4415 42.0247C99.9783 42.0257 101.453 41.4161 102.54 40.33C103.078 39.7923 103.505 39.1539 103.796 38.4513C104.087 37.7487 104.237 36.9956 104.237 36.235C104.237 35.4744 104.087 34.7213 103.796 34.0187C103.505 33.3161 103.078 32.6777 102.54 32.14L102.53 32.13ZM11.13 25.13C12.5926 25.1229 14.042 25.4075 15.3934 25.9673C16.7447 26.527 17.9708 27.3507 19 28.39C20.0369 29.4168 20.8592 30.6397 21.4189 31.9874C21.9785 33.3351 22.2645 34.7807 22.26 36.24C22.2591 37.1224 22.1551 38.0017 21.95 38.86L28.53 42.86C28.2311 43.1172 27.9535 43.3981 27.7 43.7C27.159 44.3184 26.7109 45.0124 26.37 45.76L26.1 46.36C25.98 46.71 25.87 47.05 25.78 47.36L19.49 43.54C19.3372 43.7261 19.1736 43.9031 19 44.07C17.9922 45.1928 16.7666 46.0987 15.3976 46.7327C14.0285 47.3667 12.5448 47.7155 11.0367 47.7579C9.52864 47.8003 8.0277 47.5353 6.62526 46.9791C5.22282 46.423 3.94822 45.5872 2.87904 44.5228C1.80986 43.4584 0.968457 42.1875 0.406049 40.7876C-0.156359 39.3876 -0.428012 37.8879 -0.392374 36.3796C-0.356737 34.8713 -0.0145553 33.3861 0.613344 32.0143C1.24124 30.6424 2.14173 29.4127 3.25999 28.4C4.29065 27.3655 5.51566 26.5449 6.86456 25.9854C8.21347 25.4259 9.65966 25.1386 11.12 25.14L11.13 25.13ZM15.22 32.13C14.129 31.0533 12.6578 30.4497 11.125 30.4497C9.59217 30.4497 8.12102 31.0533 7.02999 32.13H6.99999C5.92333 33.221 5.31967 34.6922 5.31967 36.225C5.31967 37.7578 5.92333 39.229 6.99999 40.32C7.80978 41.1321 8.8425 41.6854 9.9672 41.9098C11.0919 42.1342 12.2579 42.0195 13.3173 41.5803C14.3767 41.1411 15.2819 40.3972 15.9179 39.4429C16.554 38.4886 16.8923 37.3669 16.89 36.22C16.8926 35.4613 16.7456 34.7095 16.4573 34.0077C16.169 33.3059 15.7452 32.6678 15.21 32.13H15.22Z" fill="white"/>
</svg>
