<svg width="243" height="62" viewBox="0 0 243 62" fill="none" xmlns="http://www.w3.org/2000/svg">
<path d="M32.288 20.488H21.152V11.08C21.152 10.056 20.96 9.38395 20.576 9.06395C20.192 8.67995 19.488 8.48795 18.464 8.48795H13.952C12.928 8.48795 12.224 8.67995 11.84 9.06395C11.456 9.38395 11.264 10.056 11.264 11.08V50.44C11.264 51.464 11.456 52.168 11.84 52.552C12.224 52.872 12.928 53.032 13.952 53.032H18.464C19.488 53.032 20.192 52.872 20.576 52.552C20.96 52.168 21.152 51.464 21.152 50.44V41.224H32.288V51.592C32.288 57.928 28.8 61.096 21.824 61.096H10.592C3.61599 61.096 0.127991 57.928 0.127991 51.592V9.92795C0.127991 3.59195 3.61599 0.42395 10.592 0.42395H21.824C28.8 0.42395 32.288 3.59195 32.288 9.92795V20.488Z" fill="white"/>
<path d="M64.9407 61L62.6367 48.424H49.3887L47.2767 61H36.2367L48.4287 0.42395H63.3087L76.0767 61H64.9407ZM50.8287 40.072H61.1007L55.8207 11.08L50.8287 40.072Z" fill="white"/>
<path d="M91.2125 61H81.4205V0.42395H93.5165L103.692 36.424L113.868 0.42395H125.964V61H116.268V18.472L108.204 47.848H99.2765L91.2125 18.568V61Z" fill="white"/>
<path d="M146.369 52.552H164.801V61H135.233V0.42395H164.033V8.87195H146.369V25.672H161.249V34.216H146.369V52.552Z" fill="white"/>
<path d="M167.779 39.784H178.819V49.96C178.819 50.984 179.011 51.688 179.395 52.072C179.779 52.392 180.515 52.552 181.603 52.552H183.907C184.931 52.552 185.635 52.392 186.019 52.072C186.403 51.688 186.595 50.984 186.595 49.96V0.42395H197.731V51.496C197.731 57.832 194.243 61 187.267 61H178.243C171.267 61 167.779 57.832 167.779 51.496V39.784Z" fill="white"/>
<path d="M231.534 61L229.23 48.424H215.982L213.87 61H202.83L215.022 0.42395H229.902L242.67 61H231.534ZM217.422 40.072H227.694L222.414 11.08L217.422 40.072Z" fill="white"/>
</svg>
