<svg width="376" height="92" viewBox="0 0 376 92" fill="none" xmlns="http://www.w3.org/2000/svg">
<path d="M1.648 90C0.709334 90 0.240001 89.5307 0.240001 88.592V7.56799C0.240001 6.62933 0.709334 6.16 1.648 6.16H17.904C18.7573 6.16 19.312 6.50133 19.568 7.184L42.096 52.624C43.632 55.696 44.9973 58.512 46.192 61.072C47.472 63.632 48.5813 66.064 49.52 68.368C50.544 70.672 51.4827 72.8907 52.336 75.024H52.592C52.592 73.3173 52.5493 71.4827 52.464 69.52C52.464 67.5573 52.4213 65.5947 52.336 63.632C52.336 61.584 52.336 59.6213 52.336 57.744C52.336 55.7813 52.336 53.904 52.336 52.112V7.56799C52.336 6.62933 52.7627 6.16 53.616 6.16H63.6C64.5387 6.16 65.008 6.62933 65.008 7.56799V88.592C65.008 89.5307 64.5387 90 63.6 90H47.472C46.704 90 46.192 89.6587 45.936 88.976L23.92 44.816C22.5547 42.0853 21.232 39.3973 19.952 36.752C18.7573 34.1067 17.5627 31.504 16.368 28.944C15.1733 26.2987 14.0213 23.7387 12.912 21.264H12.656C12.656 23.3973 12.656 25.488 12.656 27.536C12.7413 29.4987 12.784 31.504 12.784 33.552C12.8693 35.5147 12.912 37.52 12.912 39.568C12.912 41.616 12.912 43.7067 12.912 45.84V88.592C12.912 89.5307 12.4427 90 11.504 90H1.648ZM108.917 91.536C100.213 91.536 93.5997 89.5733 89.077 85.648C84.6397 81.7227 82.421 75.8773 82.421 68.112V51.088C82.421 42.8107 84.6397 36.5387 89.077 32.272C93.5143 27.92 100.085 25.744 108.789 25.744C117.408 25.744 123.936 27.8347 128.373 32.016C132.81 36.1973 135.029 42.2987 135.029 50.32V60.304C135.029 61.2427 134.602 61.712 133.749 61.712H95.221V65.808C95.221 71.0133 96.3303 74.8107 98.549 77.2C100.768 79.5893 104.352 80.784 109.301 80.784C113.056 80.784 115.957 80.1867 118.005 78.992C120.053 77.7973 121.077 75.9627 121.077 73.488C121.077 72.5493 121.589 72.08 122.613 72.08H132.469C133.237 72.08 133.706 72.5067 133.877 73.36C134.218 79.0773 132.17 83.5573 127.733 86.8C123.296 89.9573 117.024 91.536 108.917 91.536ZM95.221 51.984H122.357V51.344C122.357 46.224 121.248 42.4693 119.029 40.08C116.81 37.6907 113.44 36.496 108.917 36.496C104.309 36.496 100.853 37.7333 98.549 40.208C96.3303 42.6827 95.221 46.3947 95.221 51.344V51.984ZM165.049 90C164.281 90 163.769 89.616 163.513 88.848L144.825 28.816C144.569 27.792 144.953 27.28 145.977 27.28H156.601C157.369 27.28 157.881 27.7067 158.137 28.56L167.481 61.968C168.164 64.6987 168.846 67.472 169.529 70.288C170.297 73.0187 171.022 75.7493 171.705 78.48H171.961C172.814 75.8347 173.625 73.1893 174.393 70.544C175.246 67.8987 176.1 65.2107 176.953 62.48L183.097 42.896L179.513 30.096C179.257 29.072 179.641 28.56 180.665 28.56H190.265C191.033 28.56 191.545 28.944 191.801 29.712L200.377 62.48C201.06 65.2107 201.7 67.8987 202.297 70.544C202.98 73.1893 203.662 75.8347 204.345 78.48H204.601C205.284 75.7493 205.966 73.0187 206.649 70.288C207.332 67.472 208.057 64.7413 208.825 62.096L218.169 28.56C218.425 27.7067 218.937 27.28 219.705 27.28H230.457C231.481 27.28 231.822 27.792 231.481 28.816L212.793 88.848C212.708 89.1893 212.537 89.488 212.281 89.744C212.025 89.9147 211.684 90 211.257 90H198.457C197.689 90 197.177 89.616 196.921 88.848L193.337 76.816C192.484 73.9147 191.673 70.9707 190.905 67.984C190.222 64.9973 189.454 61.712 188.601 58.128H188.345C187.577 61.712 186.766 64.9547 185.913 67.856C185.06 70.7573 184.164 73.616 183.225 76.432L179.257 88.848C179.001 89.616 178.489 90 177.721 90H165.049ZM267.131 91.536C262.438 91.536 258.726 90.8107 255.995 89.36C253.264 87.824 251.259 85.52 249.979 82.448C248.784 79.2907 248.187 75.3653 248.187 70.672V38.16H238.459C237.606 38.16 237.179 37.6907 237.179 36.752V28.688C237.179 27.7493 237.606 27.28 238.459 27.28H248.571L250.107 11.92C250.192 11.0667 250.704 10.64 251.643 10.64H259.451C260.39 10.64 260.859 11.0667 260.859 11.92L260.987 27.28H279.291C280.23 27.28 280.699 27.7493 280.699 28.688V36.752C280.699 37.6907 280.23 38.16 279.291 38.16H260.987V70.16C260.987 73.9147 261.627 76.6027 262.907 78.224C264.272 79.76 266.576 80.528 269.819 80.528C271.44 80.528 273.062 80.3573 274.683 80.016C276.39 79.5893 277.883 79.0773 279.163 78.48C279.675 78.3093 280.059 78.352 280.315 78.608C280.656 78.7787 280.827 79.0773 280.827 79.504V87.824C280.827 88.592 280.486 89.104 279.803 89.36C278.182 89.9573 276.304 90.4693 274.171 90.896C272.123 91.3227 269.776 91.536 267.131 91.536ZM294.993 90C294.054 90 293.585 89.5307 293.585 88.592V28.688C293.585 27.7493 294.054 27.28 294.993 27.28H304.977C305.916 27.28 306.385 27.7493 306.385 28.688V88.592C306.385 89.5307 305.916 90 304.977 90H294.993ZM299.985 17.424C297.34 17.424 295.377 16.7413 294.097 15.376C292.817 13.9253 292.177 12.0907 292.177 9.87199V8.336C292.177 6.032 292.817 4.19733 294.097 2.83199C295.377 1.46666 297.34 0.783997 299.985 0.783997C302.716 0.783997 304.678 1.46666 305.873 2.83199C307.153 4.19733 307.793 6.032 307.793 8.336V9.87199C307.793 12.0907 307.153 13.9253 305.873 15.376C304.678 16.7413 302.716 17.424 299.985 17.424ZM349.679 91.536C340.89 91.536 334.191 89.36 329.583 85.008C324.975 80.656 322.671 74.4267 322.671 66.32V51.088C322.671 42.896 325.018 36.624 329.711 32.272C334.404 27.92 341.103 25.744 349.807 25.744C355.183 25.744 359.748 26.5973 363.503 28.304C367.258 29.9253 370.116 32.1867 372.079 35.088C374.127 37.9893 375.108 41.36 375.023 45.2C374.938 47.0773 374.468 48.016 373.615 48.016H363.759C363.332 48.016 362.991 47.8453 362.735 47.504C362.564 47.1627 362.479 46.6507 362.479 45.968C362.479 43.0667 361.327 40.848 359.023 39.312C356.804 37.6907 353.775 36.88 349.935 36.88C345.071 36.88 341.444 38.1173 339.055 40.592C336.666 43.0667 335.471 46.9493 335.471 52.24V65.04C335.471 70.2453 336.666 74.128 339.055 76.688C341.444 79.1627 345.028 80.4 349.807 80.4C353.732 80.4 356.804 79.5467 359.023 77.84C361.242 76.1333 362.351 74 362.351 71.44C362.351 70.0747 362.778 69.392 363.631 69.392H373.487C374.34 69.392 374.81 69.8187 374.895 70.672C374.98 77.072 372.847 82.1493 368.495 85.904C364.228 89.6587 357.956 91.536 349.679 91.536Z" fill="white"/>
</svg>
